HIERARCHY
ROOT Hips
{
	OFFSET 0.000000 0.000000 0.000000
	CHANNELS 6 Xposition Yposition Zposition Yrotation Xrotation Zrotation
	JOINT Chest
	{
		OFFSET 0.000000 -0.009281 11.569106
		CHANNELS 3 Yrotation Xrotation Zrotation
		JOINT Chest2
		{
			OFFSET -0.000000 0.016865 9.269641
			CHANNELS 3 Yrotation Xrotation Zrotation
			JOINT Chest3
			{
				OFFSET -0.000000 0.000001 8.374491
				CHANNELS 3 Yrotation Xrotation Zrotation
				JOINT Chest4
				{
					OFFSET -0.000000 0.000001 8.374493
					CHANNELS 3 Yrotation Xrotation Zrotation
					JOINT Neck
					{
						OFFSET -0.000000 0.000002 12.152554
						CHANNELS 3 Yrotation Xrotation Zrotation
						JOINT Head
						{
							OFFSET -0.000000 0.040101 7.802319
							CHANNELS 3 Yrotation Xrotation Zrotation
							End Site
							{
								OFFSET -0.000000 0.020947 14.853096
							}
						}
					}
					JOINT RightCollar
					{
						OFFSET 2.894404 0.000001 6.791374
						CHANNELS 3 Yrotation Xrotation Zrotation
						JOINT RightShoulder
						{
							OFFSET 13.574684 0.000001 0.000000
							CHANNELS 3 Yrotation Xrotation Zrotation
							JOINT RightElbow
							{
								OFFSET 23.923903 0.000002 0.000000
								CHANNELS 3 Yrotation Xrotation Zrotation
								JOINT RightWrist
								{
									OFFSET 19.846718 0.012767 0.000000
									CHANNELS 3 Yrotation Xrotation Zrotation
									End Site
									{
										OFFSET 14.973145 0.000001 0.000000
									}
								}
							}
						}
					}
					JOINT LeftCollar
					{
						OFFSET -2.894404 0.000001 6.791374
						CHANNELS 3 Yrotation Xrotation Zrotation
						JOINT LeftShoulder
						{
							OFFSET -13.574684 -0.000001 0.000000
							CHANNELS 3 Yrotation Xrotation Zrotation
							JOINT LeftElbow
							{
								OFFSET -23.923903 -0.000002 0.000000
								CHANNELS 3 Yrotation Xrotation Zrotation
								JOINT LeftWrist
								{
									OFFSET -19.846718 0.012763 0.000000
									CHANNELS 3 Yrotation Xrotation Zrotation
									End Site
									{
										OFFSET -14.973145 -0.000001 0.000000
									}
								}
							}
						}
					}
				}
			}
		}
	}
	JOINT RightHip
	{
		OFFSET 9.469263 0.004643 0.045487
		CHANNELS 3 Yrotation Xrotation Zrotation
		JOINT RightKnee
		{
			OFFSET 0.000000 0.002661 -40.478676
			CHANNELS 3 Yrotation Xrotation Zrotation
			JOINT RightAnkle
			{
				OFFSET 0.000000 0.049106 -35.224068
				CHANNELS 3 Yrotation Xrotation Zrotation
				JOINT RightToe
				{
					OFFSET -0.000001 12.539529 -6.151390
					CHANNELS 3 Yrotation Xrotation Zrotation
					End Site
					{
						OFFSET -0.000001 5.044994 -1.291870
					}
				}
			}
		}
	}
	JOINT LeftHip
	{
		OFFSET -9.469263 0.004641 0.045487
		CHANNELS 3 Yrotation Xrotation Zrotation
		JOINT LeftKnee
		{
			OFFSET 0.000000 0.002661 -40.478676
			CHANNELS 3 Yrotation Xrotation Zrotation
			JOINT LeftAnkle
			{
				OFFSET 0.000000 0.049106 -35.224068
				CHANNELS 3 Yrotation Xrotation Zrotation
				JOINT LeftToe
				{
					OFFSET -0.000001 12.539529 -6.151390
					CHANNELS 3 Yrotation Xrotation Zrotation
					End Site
					{
						OFFSET -0.000001 5.044994 -1.291870
					}
				}
			}
		}
	}
}
MOTION
Frames: 13
Frame Time: 0.016667
-7.816800 20.741680 83.003479 -7.002820 -1.956649 -106.965653 -1.806374 -6.499092 -2.904476 -0.249003 -3.377494 0.343895 -0.249003 -3.377495 0.343892 -0.184795 -2.533263 0.256469 1.154601 -24.259719 -1.971561 1.577295 -8.861782 -3.247688 9.186731 6.819959 1.011470 42.753415 -6.769658 -14.958833 -34.955221 -65.772317 94.652919 -49.653430 42.174946 44.084390 -9.206326 5.460742 -1.553625 -38.417441 -3.606302 9.615128 -33.808422 -69.793865 -31.017156 30.959772 19.693303 -71.411124 5.494107 -4.049261 -10.551574 3.745504 -6.486667 -6.138985 -3.292433 5.065321 6.784222 -0.215152 -0.052826 0.482706 -4.024671 5.556468 -7.641891 -3.365132 -25.725440 25.003846 4.563166 2.215143 -2.143346 -4.086188 10.113499 1.173216 
-8.078023 20.697594 83.025139 -6.892013 -1.780597 -106.518528 -1.979028 -6.397370 -3.428995 -0.229074 -3.407065 0.346895 -0.229074 -3.407065 0.346894 -0.169819 -2.555429 0.258816 1.160641 -24.273685 -1.959610 1.591380 -8.887566 -3.224784 9.211086 6.843373 1.016751 42.711861 -6.802977 -14.955172 -34.876322 -65.684556 94.629860 -49.740549 42.195266 44.045069 -9.191044 5.448606 -1.563405 -38.452415 -3.619798 9.594735 -33.560862 -69.742447 -31.268620 31.001600 19.652927 -71.411301 5.386671 -3.628071 -10.950635 3.885823 -6.729557 -6.481849 -3.257844 4.942445 7.023470 -0.275922 0.154584 0.554216 -4.450666 7.393506 -8.897144 -3.374946 -27.969925 25.486419 5.728189 -0.069622 -2.595121 -5.679824 13.120080 1.123262 
-8.179054 20.583063 83.039093 -7.207545 -1.948858 -106.697582 -2.016554 -6.756973 -3.342913 -0.220582 -3.434130 0.354847 -0.220581 -3.434130 0.354847 -0.163391 -2.575726 0.264816 1.162385 -24.312663 -1.939379 1.600287 -8.959843 -3.188216 9.247399 6.892328 1.007303 42.667195 -6.887745 -14.940848 -34.750817 -65.643275 94.559687 -49.856092 42.232009 43.985769 -9.188268 5.463794 -1.563284 -38.466321 -3.575339 9.606607 -33.351838 -69.718692 -31.476206 31.005804 19.620827 -71.437509 5.435824 -3.853744 -11.023225 4.001217 -6.915260 -6.586842 -3.099743 4.785444 7.382488 -0.412766 0.387984 0.509426 -4.635230 8.625365 -9.181320 -3.144512 -29.766306 25.327310 7.340946 -2.276392 -2.733585 -7.651925 15.666729 0.737210 
-7.914811 20.317715 83.041290 -8.143676 -2.816019 -108.257931 -1.749239 -7.855313 -1.863089 -0.223903 -3.460154 0.365042 -0.223903 -3.460153 0.365046 -0.165807 -2.595251 0.272432 1.152451 -24.361770 -1.906212 1.591647 -9.051088 -3.131415 9.277245 6.943456 0.999385 42.637985 -6.967142 -14.905162 -34.617035 -65.640816 94.455342 -49.995093 42.277228 43.913807 -9.193815 5.507391 -1.542220 -38.467765 -3.487500 9.638382 -33.137083 -69.718452 -31.704078 30.983603 19.587897 -71.493960 5.871636 -5.215555 -9.965834 4.066634 -6.937529 -6.410611 -2.811965 4.574908 7.745581 -0.625937 0.677747 0.269274 -4.154405 8.949892 -7.660499 -2.567100 -31.022692 24.466892 9.023459 -3.929710 -2.045320 -9.834653 17.135164 -0.308771 
-7.530869 20.022181 83.009407 -8.727239 -3.686723 -109.890128 -1.412951 -8.634850 -0.353948 -0.245696 -3.482655 0.378741 -0.245695 -3.482656 0.378743 -0.182054 -2.612144 0.282568 1.143987 -24.416338 -1.868857 1.586730 -9.152431 -3.066769 9.323446 7.016369 0.989121 42.644856 -7.035383 -14.911802 -34.520012 -65.627729 94.339249 -50.121257 42.323301 43.854483 -9.196524 5.578918 -1.534066 -38.455471 -3.403852 9.689737 -32.835895 -69.714231 -32.043470 30.938342 19.550009 -71.567228 6.402037 -6.464870 -9.002726 4.021473 -6.768923 -6.056519 -2.478936 4.530527 8.022105 -0.778016 0.786290 0.087328 -3.627961 9.253317 -5.891642 -1.622661 -31.612851 23.152746 10.269377 -4.741650 -1.358127 -11.504231 17.329262 -1.129173 
-7.173346 19.775278 82.954216 -8.832196 -4.205525 -110.969230 -1.166522 -8.882342 0.532998 -0.286670 -3.502776 0.394570 -0.286670 -3.502777 0.394574 -0.212672 -2.627270 0.294193 1.138451 -24.473642 -1.824714 1.588761 -9.258798 -2.989263 9.382340 7.142081 0.959515 42.706325 -7.100953 -14.980051 -34.497790 -65.600443 94.237500 -50.224003 42.358207 43.795378 -9.179236 5.677400 -1.514609 -38.428225 -3.356006 9.727477 -32.520928 -69.702039 -32.438887 30.884934 19.522521 -71.647755 6.796032 -7.186277 -8.614065 3.926151 -6.498400 -5.666156 -2.163260 4.534557 8.295284 -0.848937 0.816327 0.026035 -3.368203 9.789055 -4.826309 -0.586410 -31.532736 21.793991 10.989990 -5.192119 -1.065408 -12.423346 16.814522 -1.406738 
-6.868019 19.569414 82.892998 -8.755790 -4.469228 -111.696139 -1.027673 -8.883838 1.022446 -0.339730 -3.516621 0.408556 -0.339730 -3.516621 0.408558 -0.252364 -2.637695 0.304364 1.121996 -24.532332 -1.767827 1.574326 -9.367901 -2.891635 9.426333 7.245127 0.911448 42.814798 -7.091793 -15.065678 -34.505221 -65.596549 94.131830 -50.262577 42.353733 43.761534 -9.143470 5.765270 -1.493003 -38.376446 -3.319522 9.759046 -32.237137 -69.688413 -32.860774 30.842334 19.482693 -71.709514 7.040285 -7.627920 -8.456391 3.840768 -6.176614 -5.357553 -1.876341 4.476964 8.611416 -0.880921 0.862105 0.025786 -3.321349 10.355811 -4.487998 0.259528 -30.884603 20.740788 11.247983 -5.482249 -0.946858 -12.690217 15.818856 -1.403043 
-6.647258 19.423264 82.826416 -8.474853 -4.505806 -112.229577 -0.978643 -8.626569 1.269423 -0.400761 -3.525825 0.420563 -0.400761 -3.525825 0.420565 -0.298047 -2.644647 0.313011 1.087004 -24.578799 -1.693744 1.530646 -9.454550 -2.767709 9.462217 7.378379 0.864048 42.948185 -7.033920 -15.180995 -34.556406 -65.639101 94.057818 -50.256498 42.317865 43.741119 -9.112160 5.877064 -1.500434 -38.270899 -3.278497 9.858598 -31.976644 -69.688352 -33.316970 30.818292 19.396726 -71.740926 7.178602 -7.753096 -8.320926 3.753643 -5.824712 -5.179647 -1.551729 4.564451 8.760289 -0.913103 0.726518 -0.003210 -3.449799 10.993343 -4.735494 0.931049 -29.655257 19.976837 11.129379 -5.596873 -0.910823 -12.421648 14.278307 -1.244075 
-6.480231 19.300629 82.764389 -8.255981 -4.462153 -112.682432 -1.007199 -8.403440 1.405066 -0.465979 -3.530162 0.432343 -0.465979 -3.530162 0.432347 -0.346874 -2.647953 0.321463 1.028337 -24.608941 -1.599984 1.449064 -9.511119 -2.614265 9.497586 7.542145 0.826968 43.087962 -6.965379 -15.324648 -34.594632 -65.725176 93.978014 -50.235608 42.260132 43.725003 -9.080877 6.006232 -1.508109 -38.113022 -3.209551 10.019934 -31.809581 -69.744810 -33.723294 30.802336 19.280267 -71.733181 7.229637 -7.868063 -8.135577 3.673279 -5.455132 -5.101714 -1.265372 4.610215 8.857848 -0.908508 0.595358 0.001826 -3.706553 11.428649 -5.338118 1.416835 -27.919150 19.377081 10.740972 -5.697690 -0.794741 -11.731560 12.388234 -1.043017 
-6.371992 19.200783 82.704666 -8.051963 -4.351285 -113.102844 -1.092070 -8.182170 1.470680 -0.530417 -3.527379 0.444969 -0.530417 -3.527379 0.444969 -0.395117 -2.645925 0.330559 0.941828 -24.617310 -1.485069 1.322434 -9.527556 -2.429662 9.523770 7.696912 0.820603 43.224832 -6.894700 -15.477975 -34.598269 -65.833024 93.873922 -50.216562 42.202318 43.719037 -9.032688 6.115048 -1.474666 -37.941452 -3.096884 10.161735 -31.762777 -69.862276 -34.021821 30.778291 19.165784 -71.684734 7.223121 -7.927459 -7.861374 3.601816 -5.081368 -5.089544 -1.020587 4.655228 9.019800 -0.878127 0.416005 0.018800 -4.056496 11.732697 -6.216845 1.682771 -25.819573 18.850287 10.173599 -5.639481 -0.520341 -10.698544 9.760560 -0.821280 
-6.307827 19.112034 82.649010 -7.900825 -4.223770 -113.505600 -1.208837 -8.015617 1.488401 -0.593140 -3.518856 0.457701 -0.593140 -3.518856 0.457697 -0.442077 -2.639592 0.339749 0.834473 -24.603827 -1.352202 1.162568 -9.503512 -2.217928 9.539770 7.784507 0.832911 43.368047 -6.838531 -15.587914 -34.589949 -65.919897 93.754387 -50.226284 42.161518 43.684558 -8.989000 6.266455 -1.430336 -37.749998 -2.964050 10.318372 -31.954350 -70.019527 -34.079827 30.759781 19.027534 -71.630065 7.206898 -7.998348 -7.531823 3.503396 -4.687560 -5.094611 -0.810467 4.644797 9.161633 -0.827363 0.243055 0.035816 -4.457654 11.852524 -7.206293 1.810078 -23.438011 18.250627 9.446271 -5.452230 -0.134970 -9.374038 6.035478 -0.585576 
-6.270901 19.026060 82.598328 -7.779025 -4.087962 -113.883740 -1.349132 -7.887114 1.449696 -0.653194 -3.505216 0.472057 -0.653194 -3.505217 0.472054 -0.487033 -2.629422 0.350178 0.715958 -24.573217 -1.205407 0.985967 -9.447647 -1.983943 9.546284 7.808395 0.841393 43.527109 -6.833497 -15.629746 -34.496885 -65.981622 93.535486 -50.263642 42.153718 43.638055 -8.958827 6.443899 -1.392733 -37.563841 -2.834100 10.491206 -32.242758 -70.175611 -34.014960 30.744215 18.868116 -71.594309 7.204184 -8.078778 -7.279037 3.383694 -4.271642 -5.022085 -0.663425 4.586056 9.186293 -0.751808 0.093544 0.054450 -4.887273 11.780240 -8.088400 1.939057 -20.765476 17.498996 8.600376 -5.205628 0.180843 -6.288605 2.697094 -0.241316 
-6.269807 18.919392 82.552925 -7.644149 -3.951306 -114.219505 -1.488190 -7.755092 1.340810 -0.711369 -3.486529 0.485529 -0.711369 -3.486529 0.485528 -0.530589 -2.615467 0.359971 0.596474 -24.532923 -1.048973 0.809977 -9.373631 -1.732952 9.562559 7.802047 0.843358 43.678653 -6.901918 -15.618918 -34.254686 -66.031441 93.166656 -50.324533 42.178744 43.581678 -8.915290 6.546829 -1.358611 -37.424850 -2.703469 10.632065 -32.374820 -70.286779 -34.083563 30.716218 18.723632 -71.559885 7.217687 -8.139161 -7.187303 3.328771 -3.821337 -4.728181 -0.713534 4.421978 9.077181 -0.613502 0.015870 0.082758 -5.282688 11.602340 -8.775153 2.166317 -17.854188 16.590833 7.541421 -5.060282 0.265217 -3.693507 -0.019873 -0.062099 
